<svg xmlns="http://www.w3.org/2000/svg">
    <g id="water">
        <g id="lake"></g>
        <g id="ocean"></g>
        <g id="river"></g>
    </g>
    <g id="buildings">
        <g id="abandoned"></g>
        <g id="administrative"></g>
        <g id="agricultural"></g>
        <g id="airport"></g>
        <g id="allotment_house"></g>
        <g id="apartments">
            <path fill="none" stroke="black" stroke-width="1"></path>
            <path fill="none" stroke="black" stroke-width="1"></path>
            <path fill="none" stroke="black" stroke-width="1"></path>
            <path fill="none" stroke="black" stroke-width="1"></path>
        </g>
        <g id="arbour"></g>
        <g id="bank"></g>
        <g id="barn"></g>
        <g id="basilica"></g>
        <g id="beach_hut"></g>
        <g id="bell_tower"></g>
        <g id="boathouse"></g>
        <g id="brewery"></g>
        <g id="bridge"></g>
        <g id="bungalow"></g>
        <g id="bunker"></g>
        <g id="cabin"></g>
        <g id="carport"></g>
        <g id="castle"></g>
        <g id="cathedral"></g>
        <g id="chapel"></g>
        <g id="chimney"></g>
        <g id="church">
            <path fill="none" stroke="black" stroke-width="1"></path>
            <path fill="none" stroke="black" stroke-width="1"></path>
        </g>
        <g id="civic"></g>
        <g id="clinic"></g>
        <g id="closed"></g>
        <g id="clubhouse"></g>
        <g id="collapsed"></g>
        <g id="college"></g>
        <g id="commercial">
            <path fill="none" stroke="black" stroke-width="1"></path>
            <path fill="none" stroke="black" stroke-width="1"></path>
        </g>
        <g id="construction"></g>
        <g id="container"></g>
        <g id="convent"></g>
        <g id="cowshed"></g>
        <g id="dam"></g>
        <g id="damaged"></g>
        <g id="depot"></g>
        <g id="destroyed"></g>
        <g id="detached"></g>
        <g id="disused"></g>
        <g id="dormitory"></g>
        <g id="duplex"></g>
        <g id="factory"></g>
        <g id="farm"></g>
        <g id="farm_auxiliary"></g>
        <g id="fire_station"></g>
        <g id="garage"></g>
        <g id="garages"></g>
        <g id="gazebo"></g>
        <g id="ger"></g>
        <g id="glasshouse"></g>
        <g id="government"></g>
        <g id="grandstand"></g>
        <g id="greenhouse"></g>
        <g id="hangar"></g>
        <g id="healthcare"></g>
        <g id="hermitage"></g>
        <g id="historical"></g>
        <g id="hospital"></g>
        <g id="hotel"></g>
        <g id="house"></g>
        <g id="houseboat"></g>
        <g id="hut"></g>
        <g id="industrial"></g>
        <g id="kindergarten"></g>
        <g id="kiosk"></g>
        <g id="library"></g>
        <g id="mall"></g>
        <g id="manor"></g>
        <g id="manufacture"></g>
        <g id="mixed_use"></g>
        <g id="mobile_home"></g>
        <g id="monastery"></g>
        <g id="mortuary"></g>
        <g id="mosque"></g>
        <g id="museum"></g>
        <g id="office">
            <path fill="none" stroke="black" stroke-width="1"></path>
            <path fill="none" stroke="black" stroke-width="1"></path>
            <path d="M143.90432807197794,117.77051758475136L146.54326590080746,109.41845866909716L150.30279617011547,110.63905356009491L148.30037233093753,117.6264526147861L149.91342080244794,118.35773373278789L149.6681033934001,119.62890795920976Z" fill="none" stroke="black" stroke-width="1"></path>
            <path fill="none" stroke="black" stroke-width="1"></path>
            <path fill="none" stroke="black" stroke-width="1"></path>
        </g>
        <g id="outbuilding"></g>
        <g id="parking"></g>
        <g id="pavilion"></g>
        <g id="power"></g>
        <g id="prison"></g>
        <g id="proposed"></g>
        <g id="pub"></g>
        <g id="public"></g>
        <g id="residential">
            <path fill="none" stroke="black" stroke-width="1"></path>
        </g>
        <g id="restaurant"></g>
        <g id="retail"></g>
        <g id="roof"></g>
        <g id="ruin"></g>
        <g id="ruins"></g>
        <g id="school"></g>
        <g id="semidetached_house"></g>
        <g id="service"></g>
        <g id="shed"></g>
        <g id="shelter"></g>
        <g id="shop"></g>
        <g id="shrine"></g>
        <g id="silo"></g>
        <g id="slurry_tank"></g>
        <g id="stable"></g>
        <g id="stadium">
            <path d="M94.80551474681124,67.7064937116811L94.90531722665764,65.97556337993592L95.46333693061024,64.00568088830914L96.03920452296734,62.57920476887375L96.96838746313006,61.04945406212937L97.89119615731761,59.87474817293696L99.26712267915718,58.66250864404719L100.500630333554,57.80694675503764L101.82410591701046,57.17052032414358L103.59268599026836,56.587945148930885L110.3969203743618,55.08616378786974L111.98228640621528,54.777041906141676L114.13514245022088,54.36464618437458L116.25885908398777,54.235495665692724L122.19419268285856,56.154568766010925L123.89903029613197,57.74633472459391L124.95424118521623,59.11733169306535L125.94898779829964,60.96110054210294L126.6459660641849,62.73120064823888L127.01895051356405,64.0711882605683L127.23494639107957,65.30323924939148L127.35751403518952,66.22593644389417L127.39849133044481,67.25820041180123L127.319997044513,69.2278459490044L126.92242621746846,71.30728930421174L126.21725249267183,73.10698482848238L125.29936107387766,74.57121754274704L123.99391550035216,75.93893702246714L122.19419268285856,79.07347449776717L123.27726813289337,82.2949597738916L104.76736846053973,81.027020836249L103.13301179558039,80.65076519188005L101.45112146739848,79.94884071114939L99.99178338446654,79.052260557306L98.6060223118402,77.82045282272156L97.5376986884512,76.54108758305665L96.57573391147889,75.00645411713049L95.831404104596,73.16759630234446L95.28667925670743,71.21730447746813L94.96596362418495,69.47005927085411Z" fill="none" stroke="black" stroke-width="1"></path>
            <path d="M94.80551474681124,67.7064937116811L94.90531722665764,65.97556337993592L95.46333693061024,64.00568088830914L96.03920452296734,62.57920476887375L96.96838746313006,61.04945406212937L97.89119615731761,59.87474817293696L99.26712267915718,58.66250864404719L100.500630333554,57.80694675503764L101.82410591701046,57.17052032414358L103.59268599026836,56.587945148930885L110.3969203743618,55.08616378786974L111.98228640621528,54.777041906141676L114.13514245022088,54.36464618437458L116.25885908398777,54.235495665692724L122.19419268285856,56.154568766010925L123.89903029613197,57.74633472459391L124.95424118521623,59.11733169306535L125.94898779829964,60.96110054210294L126.6459660641849,62.73120064823888L127.01895051356405,64.0711882605683L127.23494639107957,65.30323924939148L127.35751403518952,66.22593644389417L127.39849133044481,67.25820041180123L127.319997044513,69.2278459490044L126.92242621746846,71.30728930421174L126.21725249267183,73.10698482848238L125.29936107387766,74.57121754274704L123.99391550035216,75.93893702246714L122.19419268285856,79.07347449776717L123.27726813289337,82.2949597738916L104.76736846053973,81.027020836249L103.13301179558039,80.65076519188005L101.45112146739848,79.94884071114939L99.99178338446654,79.052260557306L98.6060223118402,77.82045282272156L97.5376986884512,76.54108758305665L96.57573391147889,75.00645411713049L95.831404104596,73.16759630234446L95.28667925670743,71.21730447746813L94.96596362418495,69.47005927085411Z" fill="none" stroke="black" stroke-width="1"></path>
        </g>
        <g id="static_caravan"></g>
        <g id="storage"></g>
        <g id="storage_tank"></g>
        <g id="store"></g>
        <g id="substation"></g>
        <g id="summer_cottage"></g>
        <g id="summer_house"></g>
        <g id="supermarket"></g>
        <g id="synagogue"></g>
        <g id="tank"></g>
        <g id="temple"></g>
        <g id="terrace"></g>
        <g id="tower"></g>
        <g id="train_station"></g>
        <g id="transformer_tower"></g>
        <g id="transportation"></g>
        <g id="university"></g>
        <g id="utility"></g>
        <g id="veranda"></g>
        <g id="warehouse"></g>
        <g id="wayside_shrine"></g>
        <g id="works"></g>
        <g id="undefined">
            <path d="M137.36180201452225,144.58969716029242L144.38039318472147,122.30389549373649L161.33491579885595,127.64482883969322L161.33491579885595,137.45918606885243L160.6359952413477,139.6785055459477L152.2742593861185,137.0443404377438L149.1985928993672,146.8106829825556L144.41217105835676,146.8106829825556Z" fill="none" stroke="black" stroke-width="1"></path>
            <path fill="none" stroke="black" stroke-width="1"></path>
            <path d="M112.38950966275297,136.77439655805938L119.33780200593174,114.44769552652724L130.1534404361155,117.81294448277913L123.20533021423034,140.13983368023764Z" fill="none" stroke="black" stroke-width="1"></path>
            <path fill="none" stroke="black" stroke-width="1"></path>
            <path fill="none" stroke="black" stroke-width="1"></path>
            <path fill="none" stroke="black" stroke-width="1"></path>
            <path fill="none" stroke="black" stroke-width="1"></path>
            <path fill="none" stroke="black" stroke-width="1"></path>
            <path fill="none" stroke="black" stroke-width="1"></path>
            <path d="M154.79864290892147,120.99495877325535L157.3867688914761,112.69047153752763L158.16715871891938,112.83780055015814L161.33491579885595,113.86857970664278L161.33491579885595,123.0535961081041Z" fill="none" stroke="black" stroke-width="1"></path>
            <path fill="none" stroke="black" stroke-width="1"></path>
            <path fill="none" stroke="black" stroke-width="1"></path>
            <path fill="none" stroke="black" stroke-width="1"></path>
            <path fill="none" stroke="black" stroke-width="1"></path>
            <path fill="none" stroke="black" stroke-width="1"></path>
            <path fill="none" stroke="black" stroke-width="1"></path>
            <path fill="none" stroke="black" stroke-width="1"></path>
            <path fill="none" stroke="black" stroke-width="1"></path>
            <path fill="none" stroke="black" stroke-width="1"></path>
            <path fill="none" stroke="black" stroke-width="1"></path>
            <path fill="none" stroke="black" stroke-width="1"></path>
            <path d="M91.88702070200816,125.00335569970775L92.85226366226561,122.85031507944223L94.86616114410572,121.70502501819283L95.18523768498562,121.9013072301168L97.35776283079758,107.44373192975763L99.2882487513125,107.78408164600842L99.1656811076682,108.76083832420409L99.82496026158333,108.85898019291926L98.13815265800804,120.09513703093398L97.99263772880659,120.97374536457937L97.62602752516977,121.97497133165598L97.17454878985882,123.09391931653954L96.64931092225015,123.95294450083748L95.37992536905222,124.46509580500424L93.91403091861866,124.97864563495386L92.59529048926197,125.3467323203804Z" fill="none" stroke="black" stroke-width="1"></path>
            <path d="M87.35511394310743,129.2422920136014L88.13550377055071,127.84990612289403L89.87130200699903,127.51958437077701L91.1900424361229,127.32306970562786L92.4954880096484,127.08109787921421L94.09724495955743,126.59179250907619L95.30616623722017,126.21391532488633L96.51363054406829,125.7737966949353L97.28418582049198,125.46795147727244L98.5291671177838,126.197597369086L97.77172457589768,127.5799607578665L98.5176934748888,128.00376097438857L97.72255182126537,129.46957739593927L97.55245051486418,129.68240973050706L97.30877219769172,129.84745384461712L97.01428203424439,129.96214550710283L96.29599557467736,130.1157670514658L96.4171062479727,130.60996676329523L96.4531662678346,131.03702979325317L96.30583012546413,131.5326279110741L96.01461814553477,131.9531635454623L95.15901221591048,133.13760951696895L89.98421722115017,131.3379786205478L88.32035690336488,130.7570610838011L88.29595264745876,130.62954825849738L88.36952965799719,130.37755304924212L88.50357094476931,130.104344509542L88.75890502589755,129.9390673075104L89.05175609746948,129.7870775393676L88.97963605728,129.49894965824205Z" fill="none" stroke="black" stroke-width="1"></path>
            <path d="M80.42011645575985,116.7445789128542L80.84209153871052,115.08083653752692L80.44943798729219,114.95961662719492L81.68968413071707,110.44440183718689L86.61078413575888,111.76453637180384L84.8520386137534,117.87029072793666Z" fill="none" stroke="black" stroke-width="1"></path>
            <path fill="none" stroke="black" stroke-width="1"></path>
            <path fill="none" stroke="black" stroke-width="1"></path>
            <path d="M49.976899854140356,135.16289129655343L50.73106421227567,132.4210209698649L56.59300292190164,134.23044142650906L55.886190105229616,136.96904521505348Z" fill="none" stroke="black" stroke-width="1"></path>
            <path fill="none" stroke="black" stroke-width="1"></path>
            <path fill="none" stroke="black" stroke-width="1"></path>
            <path d="M86.13307993113995,46.76689537928905L91.51057594781741,29.63936685072258L110.48852739483118,35.59785225591622L105.10921016521752,52.725319731165655Z" fill="none" stroke="black" stroke-width="1"></path>
            <path d="M110.3969203743618,55.08616378786974L112.67416527541354,47.89265432115644L113.72464101016521,48.260757981217466L116.41093038045801,39.02690330299083L119.97577296639793,40.101846064208075L120.41596018034033,38.73572914127726L126.0961418193765,40.48463835299481L131.3576265592128,42.106026157038286L131.06477548740804,43.71738800650928L135.0927525726147,45.11450647737365L130.6737610278651,58.32214892539196L131.16293887561187,58.95857491809875L129.21442294493318,65.20999038894661L128.4766495048534,64.96614459424745L127.23494639107957,65.30323924939148L127.01895051356405,64.0711882605683L126.6459660641849,62.73120064823888L125.94898779829964,60.96110054210294L124.95424118521623,59.11733169306535L123.89903029613197,57.74633472459391L122.19419268285856,56.154568766010925L116.25885908398777,54.235495665692724L114.13514245022088,54.36464618437458L111.98228640621528,54.777041906141676Z" fill="none" stroke="black" stroke-width="1"></path>
            <path d="M159.9683385072276,78.53030428674538L161.0776394258719,74.87870391854085L161.33491579885595,74.95661446661688L161.33491579885595,78.94553269119933Z" fill="none" stroke="black" stroke-width="1"></path>
            <path d="M135.8157741862815,65.42586149298586L136.77609987114556,62.374756302218884L138.22560340329073,62.82957834168337L141.73653808003291,51.648986342945136L140.38355884398334,51.22190303110983L141.31620208919048,48.255862366291694L148.46719545382075,50.50364749855362L150.18332458869554,51.04193120962009L155.5528072672896,52.726951598073356L154.6611413178034,55.560570184723474L153.61740407138132,55.23186601244379L150.0605748235248,66.55627030797768L151.07990781380795,66.8786779610673L150.13269486371428,69.89224236959126L145.40773951262236,68.40842333307955L144.87284921552055,70.1162721203873L140.14643689407967,68.6308214312885L140.6747708239127,66.95234448788688Z" fill="none" stroke="black" stroke-width="1"></path>
            <path fill="none" stroke="black" stroke-width="1"></path>
            <path fill="none" stroke="black" stroke-width="1"></path>
            <path fill="none" stroke="black" stroke-width="1"></path>
            <path fill="none" stroke="black" stroke-width="1"></path>
            <path fill="none" stroke="black" stroke-width="1"></path>
            <path fill="none" stroke="black" stroke-width="1"></path>
            <path fill="none" stroke="black" stroke-width="1"></path>
            <path fill="none" stroke="black" stroke-width="1"></path>
            <path fill="none" stroke="black" stroke-width="1"></path>
            <path fill="none" stroke="black" stroke-width="1"></path>
            <path d="M56.84651578986086,56.625711132539436L64.68115583132021,27.68524312588852L74.53042317717336,27.68524312588852L83.876961102942,30.333153011626564L75.37626668531448,62.33046301617287L57.01024285051972,57.29640689038206L57.157396871596575,56.66324399248697Z" fill="none" stroke="black" stroke-width="1"></path>
            <path d="M42.20947602461092,34.92572991072666L44.16987226251513,27.68524312588852L64.68115583132021,27.68524312588852L56.84651578986086,56.625711132539436L42.20947602461092,52.66391304717399Z" fill="none" stroke="black" stroke-width="1"></path>
            <path d="M86.13307993113995,46.76689537928905L91.51057594781741,29.63936685072258L110.48852739483118,35.59785225591622L105.10921016521752,52.725319731165655Z" fill="none" stroke="black" stroke-width="1"></path>
            <path fill="none" stroke="black" stroke-width="1"></path>
            <path d="M78.72347430163063,69.4325266990345L84.33499620552175,51.815670030307956L98.13815265800804,56.213315867236815L92.52663075411692,73.8268624957418Z" fill="none" stroke="black" stroke-width="1"></path>
            <path d="M42.20947602461092,79.9702987401979L44.17560754157603,80.43629477394279L42.20947602461092,88.72961678076535Z" fill="none" stroke="black" stroke-width="1"></path>
            <path fill="none" stroke="black" stroke-width="1"></path>
            <path d="M42.20947602461092,56.05598724610172L56.540734104812145,59.943519427324645L54.392613215139136,67.85685727244709L42.20947602461092,64.55058264744002Z" fill="none" stroke="black" stroke-width="1"></path>
            <path fill="none" stroke="black" stroke-width="1"></path>
            <path d="M47.88942536152899,89.6864721395541L49.922991945408285,82.16394645476248L61.01181234535761,85.16116495104507L58.976606669602916,92.68530897551682Z" fill="none" stroke="black" stroke-width="1"></path>
            <path fill="none" stroke="black" stroke-width="1"></path>
            <path fill="none" stroke="black" stroke-width="1"></path>
            <path fill="none" stroke="black" stroke-width="1"></path>
        </g>
    </g>
    <g id="transit">
        <g id="light_rail">
            <path d="M102.88405196042731,100.04227403807454L102.89406863227487,101.41673307435121L102.7991834282875,103.53856364812236L102.37393016158603,107.1052470743889L102.20364673389122,108.03771207493264L102.09073151950724,108.97180836740881L101.24168195738457,115.2477470143931L100.95046997745521,118.76521825895179L100.33052902738564,124.59587269462645L100.04223098815419,126.16845816234127" fill="none" stroke="black" stroke-width="1"></path>
            <path d="M101.05753956432454,146.8106829825556L100.58404189534485,146.10305365815293L100.14549377304502,145.23588097142056L100.04223098815419,144.89320776914246M100.04223098815419,135.68436365923844L100.1504110484384,135.08106884127483L101.02732517151162,130.91091566788964L102.72068914212286,123.51119347743224L103.36193828610703,120.36018820060417L104.65609233803116,114.18101161182858L105.66231259377673,109.09629233635496L106.4998885137029,104.05888029269408L106.72571894200519,102.29861486260779L106.72899712552316,100.65280813572463L106.59969099331647,100.04227403807454" fill="none" stroke="black" stroke-width="1"></path>
            <path d="M101.05753956432454,146.8106829825556L100.58404189534485,146.10305365815293L100.14549377304502,145.23588097142056L100.04223098815419,144.89320776914246M100.04223098815419,135.68436365923844L100.1504110484384,135.08106884127483L101.02732517151162,130.91091566788964L102.72068914212286,123.51119347743224L103.36193828610703,120.36018820060417L104.65609233803116,114.18101161182858L105.66231259377673,109.09629233635496L106.4998885137029,104.05888029269408L106.72571894200519,102.29861486260779L106.72899712552316,100.65280813572463L106.59969099331647,100.04227403807454" fill="none" stroke="black" stroke-width="1"></path>
            <path d="M102.88405196042731,100.04227403807454L102.89406863227487,101.41673307435121L102.7991834282875,103.53856364812236L102.37393016158603,107.1052470743889L102.20364673389122,108.03771207493264L102.09073151950724,108.97180836740881L101.24168195738457,115.2477470143931L100.95046997745521,118.76521825895179L100.33052902738564,124.59587269462645L100.04223098815419,126.16845816234127" fill="none" stroke="black" stroke-width="1"></path>
            <path d="M100.04223098815419,126.16845816234127L99.56306981295347,128.78259266517125L98.89559520012699,134.26797254383564L98.26254151505418,139.20715347467922L98.19715996365994,139.84844401921146L98.29368425975554,142.0702306232415L98.74188481178135,144.38036339043174L99.2605663118884,145.81189814768732L99.66063366108574,146.8106829825556" fill="none" stroke="black" stroke-width="1"></path>
            <path d="M100.04223098815419,144.89320776914246L99.5206355471164,143.16305669327267L99.29480511858128,142.34343720774632L99.2898878431879,140.1789964468917L99.34233878110535,139.58362905180547L100.04223098815419,135.68436365923844" fill="none" stroke="black" stroke-width="1"></path>
            <path d="M100.04223098815419,144.89320776914246L99.5206355471164,143.16305669327267L99.29480511858128,142.34343720774632L99.2898878431879,140.1789964468917L99.34233878110535,139.58362905180547L100.04223098815419,135.68436365923844" fill="none" stroke="black" stroke-width="1"></path>
            <path d="M100.04223098815419,126.16845816234127L99.56306981295347,128.78259266517125L98.89559520012699,134.26797254383564L98.26254151505418,139.20715347467922L98.19715996365994,139.84844401921146L98.29368425975554,142.0702306232415L98.74188481178135,144.38036339043174L99.2605663118884,145.81189814768732L99.66063366108574,146.8106829825556" fill="none" stroke="black" stroke-width="1"></path>
            <path d="M100.04223098815419,93.28185866575222L100.79675958910957,94.14462905970868L101.89130868180655,96.3026021271944L102.5358360093087,97.67519929714035L102.87767771398649,99.17857421841472L102.88405196042731,100.04227403807454" fill="none" stroke="black" stroke-width="1"></path>
            <path d="M106.59969099331647,100.04227403807454L106.36074783001095,98.91351969039533L105.93385547189973,97.39382629399188L105.37437879759818,95.8869529995136L104.91616157349199,95.001804176718L104.41569220460951,94.00708936166484L103.67281936784275,93.05503459996544L103.00534475478344,92.08479605964385L101.93538203951903,91.10639780736528L100.63467162009329,90.06435758131556L100.04223098815419,89.67807986447588" fill="none" stroke="black" stroke-width="1"></path>
            <path d="M106.59969099331647,100.04227403807454L106.36074783001095,98.91351969039533L105.93385547189973,97.39382629399188L105.37437879759818,95.8869529995136L104.91616157349199,95.001804176718L104.41569220460951,94.00708936166484L103.67281936784275,93.05503459996544L103.00534475478344,92.08479605964385L101.93538203951903,91.10639780736528L100.63467162009329,90.06435758131556L100.04223098815419,89.67807986447588" fill="none" stroke="black" stroke-width="1"></path>
            <path d="M100.04223098815419,93.28185866575222L100.79675958910957,94.14462905970868L101.89130868180655,96.3026021271944L102.5358360093087,97.67519929714035L102.87767771398649,99.17857421841472L102.88405196042731,100.04227403807454" fill="none" stroke="black" stroke-width="1"></path>
            <path d="M42.20947602461092,75.290401306469L43.367353153415024,75.59694897721056L59.64590249606408,79.9308904632926L93.05514680524357,88.69991332280915L94.8727175113745,89.45078907243442L96.66734093241394,90.39818351471331L97.7995891366154,91.18985424505081L99.5321091900114,92.69836360181216L100.04223098815419,93.28185866575222" fill="none" stroke="black" stroke-width="1"></path>
            <path d="M100.04223098815419,89.67807986447588L99.55833465885371,89.36243705346715L98.10700991353951,88.5264728658367L95.99167086021043,87.74435875285417L94.02366794925183,87.19955952593591L91.72821091697551,86.67783891886938L69.57151406817138,80.54912486684043L60.50478660920635,78.4666624442907L43.65692604146898,73.81380772194825L43.51305020414293,73.77604212670121L42.20947602461092,73.41151278559119" fill="none" stroke="black" stroke-width="1"></path>
            <path d="M100.04223098815419,89.67807986447588L99.55833465885371,89.36243705346715L98.10700991353951,88.5264728658367L95.99167086021043,87.74435875285417L94.02366794925183,87.19955952593591L91.72821091697551,86.67783891886938L69.57151406817138,80.54912486684043L60.50478660920635,78.4666624442907L43.65692604146898,73.81380772194825L43.51305020414293,73.77604212670121L42.20947602461092,73.41151278559119" fill="none" stroke="black" stroke-width="1"></path>
            <path d="M42.20947602461092,75.290401306469L43.367353153415024,75.59694897721056L59.64590249606408,79.9308904632926L93.05514680524357,88.69991332280915L94.8727175113745,89.45078907243442L96.66734093241394,90.39818351471331L97.7995891366154,91.18985424505081L99.5321091900114,92.69836360181216L100.04223098815419,93.28185866575222" fill="none" stroke="black" stroke-width="1"></path>
        </g>
        <g id="platform">
            <path fill="none" stroke="black" stroke-width="1"></path>
            <path d="M100.89984025247395,122.99904188106302L101.41178326378576,117.52994306513574L102.29033647920005,108.93264486978296L105.02579860412516,109.47090976662003L102.82868708088063,120.09513703093398L102.31656194804236,123.27225158212241Z" fill="none" stroke="black" stroke-width="1"></path>
            <path d="M74.41260676505044,146.8106829825556L42.20947602461092,136.64703449141234" fill="none" stroke="black" stroke-width="1"></path>
            <path d="M84.89320504805073,146.8106829825556L78.89357560826465,144.94635708699934L67.13382028997876,141.29163823486306" fill="none" stroke="black" stroke-width="1"></path>
            <path d="M42.20947602461092,74.11183666915167L42.94046079530381,74.29799988132436L43.08597572450526,74.05578725889791L43.54237173567526,74.18680121330544L43.845057358033955,74.27515403425787L43.59973994921893,75.00645411713049L42.94046079530381,74.81179824436549L42.20947602461092,74.62232497136574Z" fill="none" stroke="black" stroke-width="1"></path>
        </g>
        <g id="railway"></g>
        <g id="subway"></g>
        <g id="train">
            <path fill="none" stroke="black" stroke-width="1"></path>
            <path fill="none" stroke="black" stroke-width="1"></path>
            <path fill="none" stroke="black" stroke-width="1"></path>
            <path d="M64.74400865565985,146.8106829825556L50.202730282442644,142.2306112863589L42.20947602461092,139.7208577253623" fill="none" stroke="black" stroke-width="1"></path>
            <path d="M67.74245882919058,146.8106829825556L61.61554449866526,144.89087665872648L42.20947602461092,138.77571995032486" fill="none" stroke="black" stroke-width="1"></path>
        </g>
        <g id="tram"></g>
        <g id="buses">
            <path fill="none" stroke="black" stroke-width="1"></path>
            <path fill="none" stroke="black" stroke-width="1"></path>
            <path fill="none" stroke="black" stroke-width="1"></path>
            <path fill="none" stroke="black" stroke-width="1"></path>
            <path d="M100.40836056368425,146.8106829825556L99.06959255086258,142.99404644884635L99.06959255086258,137.302842658828L102.96012353478,112.67037784354761L103.93275628075935,105.37838722229935L103.2380186051596,95.86318089487031L99.48643515631557,91.06109358533286L95.87379924277775,88.66004475753289L67.66744961054064,80.92330840753857L49.882165113464,76.38796355423983L42.20947602461092,74.2942814908456M42.20947602461092,74.2942814908456L49.882165113464,76.38796355423983L67.66744961054064,80.92330840753857L95.87379924277775,88.66004475753289L99.48643515631557,91.06109358533286L103.2380186051596,95.86318089487031L103.93275628075935,105.37838722229935L102.96012353478,112.67037784354761L99.06959255086258,137.302842658828L99.06959255086258,142.99404644884635L100.40836056368425,146.8106829825556M100.40836056368425,146.8106829825556L99.06959255086258,142.99404644884635L99.06959255086258,137.302842658828L102.96012353478,112.67037784354761L103.93275628075935,105.37838722229935L103.2380186051596,95.86318089487031L99.48643515631557,91.06109358533286L95.87379924277775,88.66004475753289L67.66744961054064,80.92330840753857L49.882165113464,76.38796355423983L42.20947602461092,74.2942814908456M42.20947602461092,74.2942814908456L49.882165113464,76.38796355423983L67.66744961054064,80.92330840753857L95.87379924277775,88.66004475753289L99.48643515631557,91.06109358533286L103.2380186051596,95.86318089487031L103.93275628075935,105.37838722229935L102.96012353478,112.67037784354761L99.06959255086258,137.302842658828L99.06959255086258,142.99404644884635L100.40836056368425,146.8106829825556M42.20947602461092,74.2942814908456L49.882165113464,76.38796355423983L67.66744961054064,80.92330840753857L95.87379924277775,88.66004475753289L99.48643515631557,91.06109358533286L103.2380186051596,95.86318089487031L103.93275628075935,105.37838722229935L102.96012353478,112.67037784354761M42.20947602461092,74.2942814908456L49.882165113464,76.38796355423983L67.66744961054064,80.92330840753857L95.87379924277775,88.66004475753289L99.48643515631557,91.06109358533286L103.2380186051596,95.86318089487031L103.93275628075935,105.37838722229935L102.96012353478,112.67037784354761L99.06959255086258,137.302842658828L99.06959255086258,142.99404644884635L100.40836056368425,146.8106829825556" fill="none" stroke="black" stroke-width="1"></path>
            <path fill="none" stroke="black" stroke-width="1"></path>
            <path fill="none" stroke="black" stroke-width="1"></path>
            <path fill="none" stroke="black" stroke-width="1"></path>
            <path fill="none" stroke="black" stroke-width="1"></path>
            <path fill="none" stroke="black" stroke-width="1"></path>
            <path d="M42.20947602461092,88.01653304323554L74.33693129685707,76.12117817939725L85.17483903770335,78.87795833009295L124.91383408592083,89.37146699184086L116.99382458347827,111.78111239790451L141.86543337232433,118.98414890666027L161.33491579885595,125.04597139533143M161.33491579885595,125.04597139533143L141.86543337232433,118.98414890666027L116.99382458347827,111.78111239790451L124.91383408592083,89.37146699184086L85.17483903770335,78.87795833009295L74.33693129685707,76.12117817939725L42.20947602461092,88.01653304323554" fill="none" stroke="black" stroke-width="1"></path>
            <path d="M103.65329642407596,27.68524312588852L109.62960522109643,29.255219986313023L127.27594218333252,34.59106898785103L140.19806295074522,38.8597359249834L161.33491579885595,44.865517132915556M161.33491579885595,44.865517132915556L140.19806295074522,38.8597359249834L127.27594218333252,34.59106898785103L109.62960522109643,29.255219986313023L103.65329642407596,27.68524312588852M161.33491579885595,44.865517132915556L140.19806295074522,38.8597359249834L127.27594218333252,34.59106898785103L109.62960522109643,29.255219986313023L103.65329642407596,27.68524312588852M103.65329642407596,27.68524312588852L109.62960522109643,29.255219986313023L127.27594218333252,34.59106898785103L140.19806295074522,38.8597359249834L161.33491579885595,44.865517132915556M103.65329642407596,27.68524312588852L109.62960522109643,29.255219986313023L127.27594218333252,34.59106898785103L140.19806295074522,38.8597359249834L161.33491579885595,44.865517132915556" fill="none" stroke="black" stroke-width="1"></path>
            <path fill="none" stroke="black" stroke-width="1"></path>
            <path fill="none" stroke="black" stroke-width="1"></path>
            <path fill="none" stroke="black" stroke-width="1"></path>
            <path fill="none" stroke="black" stroke-width="1"></path>
            <path fill="none" stroke="black" stroke-width="1"></path>
            <path d="M42.20947602461092,67.76368145586457L74.33693129685707,76.12117817939725L85.17483903770335,78.87795833009295L124.91383408592083,89.37146699184086L116.99382458347827,111.78111239790451L141.86543337232433,118.98414890666027L161.33491579885595,125.04597139533143M161.33491579885595,125.04597139533143L141.86543337232433,118.98414890666027L116.99382458347827,111.78111239790451L124.91383408592083,89.37146699184086L85.17483903770335,78.87795833009295L74.33693129685707,76.12117817939725L42.20947602461092,67.76368145586457" fill="none" stroke="black" stroke-width="1"></path>
            <path fill="none" stroke="black" stroke-width="1"></path>
            <path fill="none" stroke="black" stroke-width="1"></path>
            <path d="M161.33491579885595,125.04597139533143L141.86543337232433,118.98414890666027L116.99382458347827,111.78111239790451L124.91383408592083,89.37146699184086L85.17483903770335,78.87795833009295L74.33693129685707,76.12117817939725L42.20947602461092,67.76368145586457M42.20947602461092,67.76368145586457L74.33693129685707,76.12117817939725L85.17483903770335,78.87795833009295L124.91383408592083,89.37146699184086L116.99382458347827,111.78111239790451L141.86543337232433,118.98414890666027L161.33491579885595,125.04597139533143" fill="none" stroke="black" stroke-width="1"></path>
            <path d="M85.17483903770335,78.87795833009295L124.91383408592083,89.37146699184086L116.99382458347827,111.78111239790451L141.86543337232433,118.98414890666027L161.33491579885595,125.04597139533143M161.33491579885595,125.04597139533143L141.86543337232433,118.98414890666027L116.99382458347827,111.78111239790451L124.91383408592083,89.37146699184086L140.19806295074522,38.8597359249834L127.27594218333252,34.59106898785103L109.62960522109643,29.255219986313023L103.65329642407596,27.68524312588852M42.20947602461092,67.76368145586457L74.33693129685707,76.12117817939725" fill="none" stroke="black" stroke-width="1"></path>
            <path fill="none" stroke="black" stroke-width="1"></path>
            <path fill="none" stroke="black" stroke-width="1"></path>
            <path fill="none" stroke="black" stroke-width="1"></path>
            <path fill="none" stroke="black" stroke-width="1"></path>
            <path fill="none" stroke="black" stroke-width="1"></path>
            <path fill="none" stroke="black" stroke-width="1"></path>
            <path fill="none" stroke="black" stroke-width="1"></path>
            <path fill="none" stroke="black" stroke-width="1"></path>
            <path fill="none" stroke="black" stroke-width="1"></path>
            <path fill="none" stroke="black" stroke-width="1"></path>
            <path d="M74.33693129685707,76.12117817939725L81.5622031239327,52.37710931128822L89.87788730673492,27.68524312588852" fill="none" stroke="black" stroke-width="1"></path>
            <path fill="none" stroke="black" stroke-width="1"></path>
            <path fill="none" stroke="black" stroke-width="1"></path>
            <path fill="none" stroke="black" stroke-width="1"></path>
            <path fill="none" stroke="black" stroke-width="1"></path>
            <path fill="none" stroke="black" stroke-width="1"></path>
            <path d="M85.17483903770335,78.87795833009295L124.91383408592083,89.37146699184086L116.99382458347827,111.78111239790451L141.86543337232433,118.98414890666027L161.33491579885595,125.04597139533143M161.33491579885595,125.04597139533143L141.86543337232433,118.98414890666027L116.99382458347827,111.78111239790451L124.91383408592083,89.37146699184086L140.19806295074522,38.8597359249834L127.27594218333252,34.59106898785103L109.62960522109643,29.255219986313023L103.65329642407596,27.68524312588852M42.20947602461092,67.76368145586457L74.33693129685707,76.12117817939725" fill="none" stroke="black" stroke-width="1"></path>
            <path d="M85.17483903770335,78.87795833009295L124.91383408592083,89.37146699184086L116.99382458347827,111.78111239790451L141.86543337232433,118.98414890666027L161.33491579885595,125.04597139533143M85.17483903770335,78.87795833009295L124.91383408592083,89.37146699184086L116.99382458347827,111.78111239790451L141.86543337232433,118.98414890666027L161.33491579885595,125.04597139533143M161.33491579885595,125.04597139533143L141.86543337232433,118.98414890666027L116.99382458347827,111.78111239790451L124.91383408592083,89.37146699184086L85.17483903770335,78.87795833009295L74.33693129685707,76.12117817939725L42.20947602461092,67.76368145586457M161.33491579885595,125.04597139533143L141.86543337232433,118.98414890666027L116.99382458347827,111.78111239790451L124.91383408592083,89.37146699184086L85.17483903770335,78.87795833009295L74.33693129685707,76.12117817939725L42.20947602461092,67.76368145586457" fill="none" stroke="black" stroke-width="1"></path>
            <path fill="none" stroke="black" stroke-width="1"></path>
            <path fill="none" stroke="black" stroke-width="1"></path>
            <path d="M42.20947602461092,67.76368145586457L74.33693129685707,76.12117817939725L85.17483903770335,78.87795833009295L124.91383408592083,89.37146699184086L116.99382458347827,111.78111239790451L141.86543337232433,118.98414890666027L161.33491579885595,125.04597139533143M161.33491579885595,125.04597139533143L141.86543337232433,118.98414890666027L116.99382458347827,111.78111239790451L124.91383408592083,89.37146699184086L85.17483903770335,78.87795833009295L74.33693129685707,76.12117817939725L42.20947602461092,67.76368145586457" fill="none" stroke="black" stroke-width="1"></path>
            <path fill="none" stroke="black" stroke-width="1"></path>
            <path fill="none" stroke="black" stroke-width="1"></path>
            <path fill="none" stroke="black" stroke-width="1"></path>
            <path fill="none" stroke="black" stroke-width="1"></path>
            <path fill="none" stroke="black" stroke-width="1"></path>
            <path fill="none" stroke="black" stroke-width="1"></path>
            <path fill="none" stroke="black" stroke-width="1"></path>
            <path fill="none" stroke="black" stroke-width="1"></path>
            <path d="M84.89694396709092,125.29789612279274L59.74744010809809,121.11837598599959L45.8526865944732,117.38347680913284L42.20947602461092,115.91018034215085M42.20947602461092,88.01653304323554L74.33693129685707,76.12117817939725L81.5622031239327,52.37710931128822L89.87788730673492,27.68524312588852M84.89694396709092,125.29789612279274L59.74744010809809,121.11837598599959L45.8526865944732,117.38347680913284L42.20947602461092,115.91018034215085M42.20947602461092,88.01653304323554L74.33693129685707,76.12117817939725L81.5622031239327,52.37710931128822L89.87788730673492,27.68524312588852M84.89694396709092,125.29789612279274L59.74744010809809,121.11837598599959L45.8526865944732,117.38347680913284L42.20947602461092,115.91018034215085M42.20947602461092,88.01653304323554L74.33693129685707,76.12117817939725L81.5622031239327,52.37710931128822L89.87788730673492,27.68524312588852M42.20947602461092,67.76368145586457L74.33693129685707,76.12117817939725L66.69481686456129,99.4202737113228L90.17695030244067,106.00087546848226M42.20947602461092,67.76368145586457L74.33693129685707,76.12117817939725M74.33693129685707,76.12117817939725L81.5622031239327,52.37710931128822L89.87788730673492,27.68524312588852M84.89694396709092,125.29789612279274L59.74744010809809,121.11837598599959L45.8526865944732,117.38347680913284L42.20947602461092,115.91018034215085M42.20947602461092,88.01653304323554L74.33693129685707,76.12117817939725L81.5622031239327,52.37710931128822L89.87788730673492,27.68524312588852M42.20947602461092,67.76368145586457L74.33693129685707,76.12117817939725L66.69481686456129,99.4202737113228L90.17695030244067,106.00087546848226M42.20947602461092,67.76368145586457L74.33693129685707,76.12117817939725M42.20947602461092,67.76368145586457L74.33693129685707,76.12117817939725L66.69481686456129,99.4202737113228L90.17695030244067,106.00087546848226M42.20947602461092,67.76368145586457L74.33693129685707,76.12117817939725L66.69481686456129,99.4202737113228L90.17695030244067,106.00087546848226M42.20947602461092,67.76368145586457L74.33693129685707,76.12117817939725L66.69481686456129,99.4202737113228L90.17695030244067,106.00087546848226" fill="none" stroke="black" stroke-width="1"></path>
            <path fill="none" stroke="black" stroke-width="1"></path>
            <path fill="none" stroke="black" stroke-width="1"></path>
            <path d="M42.20947602461092,116.81859224790242L45.8526865944732,117.38347680913284L59.74744010809809,121.11837598599959L66.69481686456129,99.4202737113228L74.33693129685707,76.12117817939725" fill="none" stroke="black" stroke-width="1"></path>
            <path d="M42.20947602461092,67.76368145586457L74.33693129685707,76.12117817939725L85.17483903770335,78.87795833009295L124.91383408592083,89.37146699184086L116.99382458347827,111.78111239790451L141.86543337232433,118.98414890666027L161.33491579885595,125.04597139533143M161.33491579885595,125.04597139533143L141.86543337232433,118.98414890666027L116.99382458347827,111.78111239790451L124.91383408592083,89.37146699184086L85.17483903770335,78.87795833009295L74.33693129685707,76.12117817939725L42.20947602461092,67.76368145586457" fill="none" stroke="black" stroke-width="1"></path>
            <path fill="none" stroke="black" stroke-width="1"></path>
            <path fill="none" stroke="black" stroke-width="1"></path>
            <path fill="none" stroke="black" stroke-width="1"></path>
            <path fill="none" stroke="black" stroke-width="1"></path>
            <path d="M74.33693129685707,76.12117817939725L81.5622031239327,52.37710931128822L89.87788730673492,27.68524312588852" fill="none" stroke="black" stroke-width="1"></path>
            <path fill="none" stroke="black" stroke-width="1"></path>
            <path fill="none" stroke="black" stroke-width="1"></path>
            <path fill="none" stroke="black" stroke-width="1"></path>
            <path fill="none" stroke="black" stroke-width="1"></path>
            <path fill="none" stroke="black" stroke-width="1"></path>
            <path d="M161.33491579885595,125.04597139533143L141.86543337232433,118.98414890666027L116.99382458347827,111.78111239790451L124.91383408592083,89.37146699184086L140.19806295074522,38.8597359249834L127.27594218333252,34.59106898785103L109.62960522109643,29.255219986313023L103.65329642407596,27.68524312588852M42.20947602461092,67.76368145586457L74.33693129685707,76.12117817939725L81.5622031239327,52.37710931128822L89.87788730673492,27.68524312588852M74.33693129685707,76.12117817939725L81.5622031239327,52.37710931128822L89.87788730673492,27.68524312588852M84.89694396709092,125.29789612279274L59.74744010809809,121.11837598599959L45.8526865944732,117.38347680913284L42.20947602461092,115.91018034215085M42.20947602461092,88.01653304323554L74.33693129685707,76.12117817939725L81.5622031239327,52.37710931128822L89.87788730673492,27.68524312588852M94.59187818598002,27.68524312588852L109.62960522109643,29.255219986313023L127.27594218333252,34.59106898785103L140.19806295074522,38.8597359249834L161.33491579885595,44.865517132915556M42.20947602461092,67.76368145586457L74.33693129685707,76.12117817939725L81.5622031239327,52.37710931128822L89.87788730673492,27.68524312588852M94.59187818598002,27.68524312588852L109.62960522109643,29.255219986313023L127.27594218333252,34.59106898785103L140.19806295074522,38.8597359249834L124.91383408592083,89.37146699184086L116.99382458347827,111.78111239790451L141.86543337232433,118.98414890666027L161.33491579885595,125.04597139533143M161.33491579885595,44.865517132915556L140.19806295074522,38.8597359249834L127.27594218333252,34.59106898785103L109.62960522109643,29.255219986313023L103.65329642407596,27.68524312588852M42.20947602461092,67.76368145586457L74.33693129685707,76.12117817939725L66.69481686456129,99.4202737113228L90.17695030244067,106.00087546848226M161.33491579885595,44.865517132915556L140.19806295074522,38.8597359249834L127.27594218333252,34.59106898785103L109.62960522109643,29.255219986313023L103.65329642407596,27.68524312588852M42.20947602461092,67.76368145586457L74.33693129685707,76.12117817939725M74.33693129685707,76.12117817939725L81.5622031239327,52.37710931128822L89.87788730673492,27.68524312588852M94.59187818598002,27.68524312588852L109.62960522109643,29.255219986313023L127.27594218333252,34.59106898785103L140.19806295074522,38.8597359249834L161.33491579885595,44.865517132915556" fill="none" stroke="black" stroke-width="1"></path>
            <path fill="none" stroke="black" stroke-width="1"></path>
            <path fill="none" stroke="black" stroke-width="1"></path>
            <path fill="none" stroke="black" stroke-width="1"></path>
            <path fill="none" stroke="black" stroke-width="1"></path>
            <path fill="none" stroke="black" stroke-width="1"></path>
            <path fill="none" stroke="black" stroke-width="1"></path>
            <path fill="none" stroke="black" stroke-width="1"></path>
            <path fill="none" stroke="black" stroke-width="1"></path>
            <path fill="none" stroke="black" stroke-width="1"></path>
            <path fill="none" stroke="black" stroke-width="1"></path>
            <path fill="none" stroke="black" stroke-width="1"></path>
            <path fill="none" stroke="black" stroke-width="1"></path>
            <path fill="none" stroke="black" stroke-width="1"></path>
            <path d="M74.33693129685707,76.12117817939725L81.5622031239327,52.37710931128822L89.87788730673492,27.68524312588852M74.33693129685707,76.12117817939725L81.5622031239327,52.37710931128822L89.87788730673492,27.68524312588852" fill="none" stroke="black" stroke-width="1"></path>
            <path fill="none" stroke="black" stroke-width="1"></path>
            <path d="M42.20947602461092,116.81859224790242L45.8526865944732,117.38347680913284L59.74744010809809,121.11837598599959L66.69481686456129,99.4202737113228L74.33693129685707,76.12117817939725M42.20947602461092,116.81859224790242L45.8526865944732,117.38347680913284L59.74744010809809,121.11837598599959L66.69481686456129,99.4202737113228L74.33693129685707,76.12117817939725" fill="none" stroke="black" stroke-width="1"></path>
            <path d="M161.33491579885595,125.04597139533143L141.86543337232433,118.98414890666027L116.99382458347827,111.78111239790451L124.91383408592083,89.37146699184086L140.19806295074522,38.8597359249834L127.27594218333252,34.59106898785103L109.62960522109643,29.255219986313023L103.65329642407596,27.68524312588852M42.20947602461092,67.76368145586457L74.33693129685707,76.12117817939725L81.5622031239327,52.37710931128822L89.87788730673492,27.68524312588852M74.33693129685707,76.12117817939725L81.5622031239327,52.37710931128822L89.87788730673492,27.68524312588852M84.89694396709092,125.29789612279274L59.74744010809809,121.11837598599959L45.8526865944732,117.38347680913284L42.20947602461092,115.91018034215085M42.20947602461092,88.01653304323554L74.33693129685707,76.12117817939725L81.5622031239327,52.37710931128822L89.87788730673492,27.68524312588852M94.59187818598002,27.68524312588852L109.62960522109643,29.255219986313023L127.27594218333252,34.59106898785103L140.19806295074522,38.8597359249834L161.33491579885595,44.865517132915556M161.33491579885595,44.865517132915556L140.19806295074522,38.8597359249834L127.27594218333252,34.59106898785103L109.62960522109643,29.255219986313023L103.65329642407596,27.68524312588852M42.20947602461092,67.76368145586457L74.33693129685707,76.12117817939725L66.69481686456129,99.4202737113228L90.17695030244067,106.00087546848226M42.20947602461092,67.76368145586457L74.33693129685707,76.12117817939725L81.5622031239327,52.37710931128822L89.87788730673492,27.68524312588852M94.59187818598002,27.68524312588852L109.62960522109643,29.255219986313023L127.27594218333252,34.59106898785103L140.19806295074522,38.8597359249834L124.91383408592083,89.37146699184086L116.99382458347827,111.78111239790451L141.86543337232433,118.98414890666027L161.33491579885595,125.04597139533143M161.33491579885595,44.865517132915556L140.19806295074522,38.8597359249834L127.27594218333252,34.59106898785103L109.62960522109643,29.255219986313023L103.65329642407596,27.68524312588852M42.20947602461092,67.76368145586457L74.33693129685707,76.12117817939725M74.33693129685707,76.12117817939725L81.5622031239327,52.37710931128822L89.87788730673492,27.68524312588852M94.59187818598002,27.68524312588852L109.62960522109643,29.255219986313023L127.27594218333252,34.59106898785103L140.19806295074522,38.8597359249834L161.33491579885595,44.865517132915556" fill="none" stroke="black" stroke-width="1"></path>
            <path fill="none" stroke="black" stroke-width="1"></path>
            <path fill="none" stroke="black" stroke-width="1"></path>
            <path d="M74.33693129685707,76.12117817939725L81.5622031239327,52.37710931128822L89.87788730673492,27.68524312588852" fill="none" stroke="black" stroke-width="1"></path>
            <path fill="none" stroke="black" stroke-width="1"></path>
            <path d="M42.20947602461092,74.2942814908456L49.882165113464,76.38796355423983L67.66744961054064,80.92330840753857L95.87379924277775,88.66004475753289L99.48643515631557,91.06109358533286L103.2380186051596,95.86318089487031L103.93275628075935,105.37838722229935L102.96012353478,112.67037784354761M42.20947602461092,74.2942814908456L49.882165113464,76.38796355423983L67.66744961054064,80.92330840753857L95.87379924277775,88.66004475753289L99.48643515631557,91.06109358533286L103.2380186051596,95.86318089487031L103.93275628075935,105.37838722229935L102.96012353478,112.67037784354761L99.06959255086258,137.302842658828L99.06959255086258,142.99404644884635L100.40836056368425,146.8106829825556M100.40836056368425,146.8106829825556L99.06959255086258,142.99404644884635L99.06959255086258,137.302842658828L102.96012353478,112.67037784354761L103.93275628075935,105.37838722229935L103.2380186051596,95.86318089487031L99.48643515631557,91.06109358533286L95.87379924277775,88.66004475753289L67.66744961054064,80.92330840753857L49.882165113464,76.38796355423983L42.20947602461092,74.2942814908456M100.40836056368425,146.8106829825556L99.06959255086258,142.99404644884635L99.06959255086258,137.302842658828L102.96012353478,112.67037784354761L103.93275628075935,105.37838722229935L103.2380186051596,95.86318089487031L99.48643515631557,91.06109358533286L95.87379924277775,88.66004475753289L67.66744961054064,80.92330840753857L49.882165113464,76.38796355423983L42.20947602461092,74.2942814908456M42.20947602461092,74.2942814908456L49.882165113464,76.38796355423983L67.66744961054064,80.92330840753857L95.87379924277775,88.66004475753289L99.48643515631557,91.06109358533286L103.2380186051596,95.86318089487031L103.93275628075935,105.37838722229935L102.96012353478,112.67037784354761L99.06959255086258,137.302842658828L99.06959255086258,142.99404644884635L100.40836056368425,146.8106829825556" fill="none" stroke="black" stroke-width="1"></path>
            <path fill="none" stroke="black" stroke-width="1"></path>
            <path fill="none" stroke="black" stroke-width="1"></path>
            <path fill="none" stroke="black" stroke-width="1"></path>
            <path fill="none" stroke="black" stroke-width="1"></path>
            <path fill="none" stroke="black" stroke-width="1"></path>
            <path fill="none" stroke="black" stroke-width="1"></path>
            <path fill="none" stroke="black" stroke-width="1"></path>
            <path fill="none" stroke="black" stroke-width="1"></path>
            <path fill="none" stroke="black" stroke-width="1"></path>
            <path fill="none" stroke="black" stroke-width="1"></path>
            <path fill="none" stroke="black" stroke-width="1"></path>
            <path fill="none" stroke="black" stroke-width="1"></path>
            <path fill="none" stroke="black" stroke-width="1"></path>
            <path fill="none" stroke="black" stroke-width="1"></path>
            <path fill="none" stroke="black" stroke-width="1"></path>
            <path fill="none" stroke="black" stroke-width="1"></path>
            <path fill="none" stroke="black" stroke-width="1"></path>
            <path d="M42.20947602461092,74.2942814908456L49.882165113464,76.38796355423983L67.66744961054064,80.92330840753857L95.87379924277775,88.66004475753289L99.48643515631557,91.06109358533286L103.2380186051596,95.86318089487031L103.93275628075935,105.37838722229935L102.96012353478,112.67037784354761L99.06959255086258,137.302842658828L99.06959255086258,142.99404644884635L100.40836056368425,146.8106829825556M42.20947602461092,74.2942814908456L49.882165113464,76.38796355423983L67.66744961054064,80.92330840753857L95.87379924277775,88.66004475753289L99.48643515631557,91.06109358533286L103.2380186051596,95.86318089487031L103.93275628075935,105.37838722229935L102.96012353478,112.67037784354761L99.06959255086258,137.302842658828L99.06959255086258,142.99404644884635L100.40836056368425,146.8106829825556M100.40836056368425,146.8106829825556L99.06959255086258,142.99404644884635L99.06959255086258,137.302842658828L102.96012353478,112.67037784354761L103.93275628075935,105.37838722229935L103.2380186051596,95.86318089487031L99.48643515631557,91.06109358533286L95.87379924277775,88.66004475753289L67.66744961054064,80.92330840753857L49.882165113464,76.38796355423983L42.20947602461092,74.2942814908456M100.40836056368425,146.8106829825556L99.06959255086258,142.99404644884635L99.06959255086258,137.302842658828L102.96012353478,112.67037784354761L103.93275628075935,105.37838722229935L103.2380186051596,95.86318089487031L99.48643515631557,91.06109358533286L95.87379924277775,88.66004475753289L67.66744961054064,80.92330840753857L49.882165113464,76.38796355423983L42.20947602461092,74.2942814908456M42.20947602461092,74.2942814908456L49.882165113464,76.38796355423983L67.66744961054064,80.92330840753857L95.87379924277775,88.66004475753289L99.48643515631557,91.06109358533286L103.2380186051596,95.86318089487031L103.93275628075935,105.37838722229935L102.96012353478,112.67037784354761M42.20947602461092,74.2942814908456L49.882165113464,76.38796355423983L67.66744961054064,80.92330840753857L95.87379924277775,88.66004475753289L99.48643515631557,91.06109358533286L103.2380186051596,95.86318089487031L103.93275628075935,105.37838722229935L102.96012353478,112.67037784354761L99.06959255086258,137.302842658828L99.06959255086258,142.99404644884635L100.40836056368425,146.8106829825556" fill="none" stroke="black" stroke-width="1"></path>
            <path fill="none" stroke="black" stroke-width="1"></path>
            <path fill="none" stroke="black" stroke-width="1"></path>
            <path fill="none" stroke="black" stroke-width="1"></path>
            <path fill="none" stroke="black" stroke-width="1"></path>
            <path fill="none" stroke="black" stroke-width="1"></path>
            <path fill="none" stroke="black" stroke-width="1"></path>
            <path fill="none" stroke="black" stroke-width="1"></path>
            <path fill="none" stroke="black" stroke-width="1"></path>
            <path fill="none" stroke="black" stroke-width="1"></path>
            <path fill="none" stroke="black" stroke-width="1"></path>
            <path d="M74.33693129685707,76.12117817939725L81.5622031239327,52.37710931128822L89.87788730673492,27.68524312588852" fill="none" stroke="black" stroke-width="1"></path>
            <path fill="none" stroke="black" stroke-width="1"></path>
            <path d="M42.20947602461092,88.01653304323554L74.33693129685707,76.12117817939725L66.69481686456129,99.4202737113228L90.17695030244067,106.00087546848226M84.89694396709092,125.29789612279274L59.74744010809809,121.11837598599959L45.8526865944732,117.38347680913284L42.20947602461092,115.91018034215085M42.20947602461092,88.01653304323554L74.33693129685707,76.12117817939725L66.69481686456129,99.4202737113228L59.74744010809809,121.11837598599959L45.8526865944732,117.38347680913284L42.20947602461092,116.81859224790242M74.33693129685707,76.12117817939725L66.69481686456129,99.4202737113228L59.74744010809809,121.11837598599959L45.8526865944732,117.38347680913284L42.20947602461092,116.81859224790242" fill="none" stroke="black" stroke-width="1"></path>
            <path d="M161.33491579885595,125.04597139533143L141.86543337232433,118.98414890666027L116.99382458347827,111.78111239790451L124.91383408592083,89.37146699184086L85.17483903770335,78.87795833009295L74.33693129685707,76.12117817939725L42.20947602461092,88.01653304323554M42.20947602461092,88.01653304323554L74.33693129685707,76.12117817939725L85.17483903770335,78.87795833009295L124.91383408592083,89.37146699184086L116.99382458347827,111.78111239790451L141.86543337232433,118.98414890666027L161.33491579885595,125.04597139533143" fill="none" stroke="black" stroke-width="1"></path>
            <path fill="none" stroke="black" stroke-width="1"></path>
            <path d="M74.33693129685707,76.12117817939725L81.5622031239327,52.37710931128822L89.87788730673492,27.68524312588852M74.33693129685707,76.12117817939725L81.5622031239327,52.37710931128822L89.87788730673492,27.68524312588852" fill="none" stroke="black" stroke-width="1"></path>
            <path fill="none" stroke="black" stroke-width="1"></path>
            <path fill="none" stroke="black" stroke-width="1"></path>
            <path d="M74.33693129685707,76.12117817939725L81.5622031239327,52.37710931128822L89.87788730673492,27.68524312588852M74.33693129685707,76.12117817939725L81.5622031239327,52.37710931128822L89.87788730673492,27.68524312588852" fill="none" stroke="black" stroke-width="1"></path>
            <path fill="none" stroke="black" stroke-width="1"></path>
            <path fill="none" stroke="black" stroke-width="1"></path>
            <path d="M42.20947602461092,116.81859224790242L45.8526865944732,117.38347680913284L59.74744010809809,121.11837598599959L66.69481686456129,99.4202737113228L74.33693129685707,76.12117817939725M42.20947602461092,116.81859224790242L45.8526865944732,117.38347680913284L59.74744010809809,121.11837598599959L66.69481686456129,99.4202737113228L74.33693129685707,76.12117817939725" fill="none" stroke="black" stroke-width="1"></path>
            <path fill="none" stroke="black" stroke-width="1"></path>
            <path fill="none" stroke="black" stroke-width="1"></path>
            <path fill="none" stroke="black" stroke-width="1"></path>
            <path fill="none" stroke="black" stroke-width="1"></path>
            <path fill="none" stroke="black" stroke-width="1"></path>
            <path fill="none" stroke="black" stroke-width="1"></path>
            <path d="M84.89694396709092,125.29789612279274L59.74744010809809,121.11837598599959L45.8526865944732,117.38347680913284L42.20947602461092,115.91018034215085M42.20947602461092,88.01653304323554L74.33693129685707,76.12117817939725L66.69481686456129,99.4202737113228L59.74744010809809,121.11837598599959L45.8526865944732,117.38347680913284L42.20947602461092,116.81859224790242M74.33693129685707,76.12117817939725L66.69481686456129,99.4202737113228L59.74744010809809,121.11837598599959L45.8526865944732,117.38347680913284L42.20947602461092,116.81859224790242M42.20947602461092,88.01653304323554L74.33693129685707,76.12117817939725L66.69481686456129,99.4202737113228L90.17695030244067,106.00087546848226" fill="none" stroke="black" stroke-width="1"></path>
            <path fill="none" stroke="black" stroke-width="1"></path>
            <path fill="none" stroke="black" stroke-width="1"></path>
            <path fill="none" stroke="black" stroke-width="1"></path>
            <path fill="none" stroke="black" stroke-width="1"></path>
            <path fill="none" stroke="black" stroke-width="1"></path>
            <path fill="none" stroke="black" stroke-width="1"></path>
            <path fill="none" stroke="black" stroke-width="1"></path>
            <path fill="none" stroke="black" stroke-width="1"></path>
            <path fill="none" stroke="black" stroke-width="1"></path>
            <path d="M100.40836056368425,146.8106829825556L99.06959255086258,142.99404644884635L99.06959255086258,137.302842658828L102.96012353478,112.67037784354761L103.93275628075935,105.37838722229935L103.2380186051596,95.86318089487031L99.48643515631557,91.06109358533286L95.87379924277775,88.66004475753289L67.66744961054064,80.92330840753857L49.882165113464,76.38796355423983L42.20947602461092,74.2942814908456M42.20947602461092,74.2942814908456L49.882165113464,76.38796355423983L67.66744961054064,80.92330840753857L95.87379924277775,88.66004475753289L99.48643515631557,91.06109358533286L103.2380186051596,95.86318089487031L103.93275628075935,105.37838722229935L102.96012353478,112.67037784354761L99.06959255086258,137.302842658828L99.06959255086258,142.99404644884635L100.40836056368425,146.8106829825556M42.20947602461092,74.2942814908456L49.882165113464,76.38796355423983L67.66744961054064,80.92330840753857L95.87379924277775,88.66004475753289L99.48643515631557,91.06109358533286L103.2380186051596,95.86318089487031L103.93275628075935,105.37838722229935L102.96012353478,112.67037784354761L99.06959255086258,137.302842658828L99.06959255086258,142.99404644884635L100.40836056368425,146.8106829825556M42.20947602461092,74.2942814908456L49.882165113464,76.38796355423983L67.66744961054064,80.92330840753857L95.87379924277775,88.66004475753289L99.48643515631557,91.06109358533286L103.2380186051596,95.86318089487031L103.93275628075935,105.37838722229935L102.96012353478,112.67037784354761M100.40836056368425,146.8106829825556L99.06959255086258,142.99404644884635L99.06959255086258,137.302842658828L102.96012353478,112.67037784354761L103.93275628075935,105.37838722229935L103.2380186051596,95.86318089487031L99.48643515631557,91.06109358533286L95.87379924277775,88.66004475753289L67.66744961054064,80.92330840753857L49.882165113464,76.38796355423983L42.20947602461092,74.2942814908456" fill="none" stroke="black" stroke-width="1"></path>
            <path d="M42.20947602461092,116.81859224790242L45.8526865944732,117.38347680913284L59.74744010809809,121.11837598599959L66.69481686456129,99.4202737113228L74.33693129685707,76.12117817939725" fill="none" stroke="black" stroke-width="1"></path>
            <path fill="none" stroke="black" stroke-width="1"></path>
            <path fill="none" stroke="black" stroke-width="1"></path>
            <path fill="none" stroke="black" stroke-width="1"></path>
            <path d="M85.17483903770335,78.87795833009295L124.91383408592083,89.37146699184086L116.99382458347827,111.78111239790451L141.86543337232433,118.98414890666027L161.33491579885595,125.04597139533143M161.33491579885595,125.04597139533143L141.86543337232433,118.98414890666027L116.99382458347827,111.78111239790451L124.91383408592083,89.37146699184086L85.17483903770335,78.87795833009295L74.33693129685707,76.12117817939725L42.20947602461092,67.76368145586457M161.33491579885595,125.04597139533143L141.86543337232433,118.98414890666027L116.99382458347827,111.78111239790451L124.91383408592083,89.37146699184086L85.17483903770335,78.87795833009295L74.33693129685707,76.12117817939725L42.20947602461092,67.76368145586457M85.17483903770335,78.87795833009295L124.91383408592083,89.37146699184086L116.99382458347827,111.78111239790451L141.86543337232433,118.98414890666027L161.33491579885595,125.04597139533143" fill="none" stroke="black" stroke-width="1"></path>
            <path fill="none" stroke="black" stroke-width="1"></path>
            <path fill="none" stroke="black" stroke-width="1"></path>
            <path d="M161.33491579885595,44.865517132915556L140.19806295074522,38.8597359249834L127.27594218333252,34.59106898785103L109.62960522109643,29.255219986313023L103.65329642407596,27.68524312588852M103.65329642407596,27.68524312588852L109.62960522109643,29.255219986313023L127.27594218333252,34.59106898785103L140.19806295074522,38.8597359249834L161.33491579885595,44.865517132915556M161.33491579885595,44.865517132915556L140.19806295074522,38.8597359249834L127.27594218333252,34.59106898785103L109.62960522109643,29.255219986313023L103.65329642407596,27.68524312588852M103.65329642407596,27.68524312588852L109.62960522109643,29.255219986313023L127.27594218333252,34.59106898785103L140.19806295074522,38.8597359249834L161.33491579885595,44.865517132915556M103.65329642407596,27.68524312588852L109.62960522109643,29.255219986313023L127.27594218333252,34.59106898785103L140.19806295074522,38.8597359249834L161.33491579885595,44.865517132915556" fill="none" stroke="black" stroke-width="1"></path>
            <path fill="none" stroke="black" stroke-width="1"></path>
            <path fill="none" stroke="black" stroke-width="1"></path>
            <path d="M74.33693129685707,76.12117817939725L81.5622031239327,52.37710931128822L89.87788730673492,27.68524312588852" fill="none" stroke="black" stroke-width="1"></path>
            <path fill="none" stroke="black" stroke-width="1"></path>
            <path fill="none" stroke="black" stroke-width="1"></path>
            <path fill="none" stroke="black" stroke-width="1"></path>
            <path d="M84.89694396709092,125.29789612279274L59.74744010809809,121.11837598599959L45.8526865944732,117.38347680913284L42.20947602461092,115.91018034215085M42.20947602461092,88.01653304323554L74.33693129685707,76.12117817939725L81.5622031239327,52.37710931128822L89.87788730673492,27.68524312588852M42.20947602461092,67.76368145586457L74.33693129685707,76.12117817939725M42.20947602461092,67.76368145586457L74.33693129685707,76.12117817939725L66.69481686456129,99.4202737113228L90.17695030244067,106.00087546848226M42.20947602461092,67.76368145586457L74.33693129685707,76.12117817939725L66.69481686456129,99.4202737113228L90.17695030244067,106.00087546848226M84.89694396709092,125.29789612279274L59.74744010809809,121.11837598599959L45.8526865944732,117.38347680913284L42.20947602461092,115.91018034215085M42.20947602461092,88.01653304323554L74.33693129685707,76.12117817939725L81.5622031239327,52.37710931128822L89.87788730673492,27.68524312588852M84.89694396709092,125.29789612279274L59.74744010809809,121.11837598599959L45.8526865944732,117.38347680913284L42.20947602461092,115.91018034215085M42.20947602461092,88.01653304323554L74.33693129685707,76.12117817939725L81.5622031239327,52.37710931128822L89.87788730673492,27.68524312588852M42.20947602461092,67.76368145586457L74.33693129685707,76.12117817939725L66.69481686456129,99.4202737113228L90.17695030244067,106.00087546848226M84.89694396709092,125.29789612279274L59.74744010809809,121.11837598599959L45.8526865944732,117.38347680913284L42.20947602461092,115.91018034215085M42.20947602461092,88.01653304323554L74.33693129685707,76.12117817939725L81.5622031239327,52.37710931128822L89.87788730673492,27.68524312588852M74.33693129685707,76.12117817939725L81.5622031239327,52.37710931128822L89.87788730673492,27.68524312588852M42.20947602461092,67.76368145586457L74.33693129685707,76.12117817939725M42.20947602461092,67.76368145586457L74.33693129685707,76.12117817939725L66.69481686456129,99.4202737113228L90.17695030244067,106.00087546848226M42.20947602461092,67.76368145586457L74.33693129685707,76.12117817939725L66.69481686456129,99.4202737113228L90.17695030244067,106.00087546848226" fill="none" stroke="black" stroke-width="1"></path>
            <path fill="none" stroke="black" stroke-width="1"></path>
        </g>
    </g>
</svg>
